<?xml version="1.0" standalone="no"?>
<!DOCTYPE svg PUBLIC "-//W3C//DTD SVG 20010904//EN"
 "http://www.w3.org/TR/2001/REC-SVG-20010904/DTD/svg10.dtd">
<svg version="1.0" xmlns="http://www.w3.org/2000/svg"
 width="1600.000000pt" height="1000.000000pt" viewBox="0 0 1600.000000 1000.000000"
 preserveAspectRatio="xMidYMid meet">

<g transform="translate(0.000000,1000.000000) scale(0.100000,-0.100000)"
fill="#000000" stroke="none">
<path d="M15865 9965 c-60 -18 -209 -63 -330 -100 -121 -37 -269 -82 -330
-100 -60 -18 -173 -52 -250 -75 -234 -71 -551 -167 -1285 -388 -146 -44 -301
-92 -345 -105 -124 -38 -355 -108 -405 -123 -25 -7 -74 -21 -110 -32 -127 -39
-496 -150 -545 -165 -27 -8 -171 -52 -320 -97 -148 -45 -290 -88 -315 -95 -57
-17 -113 -34 -335 -101 -99 -30 -216 -66 -260 -79 -94 -28 -396 -119 -545
-164 -122 -37 -516 -156 -897 -272 -148 -44 -342 -103 -433 -130 -91 -27 -192
-58 -225 -69 -33 -10 -94 -28 -135 -40 -41 -12 -102 -30 -135 -41 -79 -24
-406 -123 -470 -142 -27 -8 -147 -44 -265 -80 -118 -36 -231 -70 -250 -75 -19
-6 -64 -19 -100 -30 -36 -11 -207 -63 -381 -115 -174 -53 -414 -126 -535 -163
-311 -94 -345 -104 -384 -116 -19 -5 -91 -27 -160 -48 -69 -22 -170 -52 -225
-68 -55 -16 -197 -59 -315 -95 -118 -36 -237 -72 -265 -80 -110 -32 -567 -170
-670 -202 -60 -19 -193 -59 -295 -90 -102 -31 -234 -71 -295 -89 -189 -58
-388 -118 -435 -132 -25 -7 -74 -21 -110 -32 -119 -36 -601 -183 -870 -264
-146 -44 -294 -89 -330 -100 -36 -11 -81 -24 -100 -29 -19 -6 -116 -35 -215
-65 -188 -57 -213 -65 -545 -164 -113 -34 -245 -75 -295 -90 -49 -15 -191 -58
-315 -95 -124 -38 -227 -69 -228 -71 -2 -1 25 -31 60 -66 43 -42 76 -86 99
-133 32 -65 34 -76 34 -170 0 -93 -2 -105 -32 -166 -18 -35 -58 -93 -89 -127
-31 -35 -55 -64 -53 -66 5 -4 281 -87 569 -172 124 -36 358 -105 520 -154 162
-48 477 -142 700 -209 223 -66 542 -161 710 -211 168 -50 442 -132 610 -181
168 -50 384 -114 480 -144 96 -29 247 -74 335 -100 88 -26 273 -81 410 -122
138 -41 399 -119 580 -173 839 -248 1057 -313 1290 -383 138 -42 345 -103 460
-137 116 -34 266 -79 335 -100 69 -21 204 -62 300 -90 159 -47 483 -143 1445
-430 182 -54 431 -128 555 -165 124 -36 259 -77 300 -90 41 -13 170 -51 285
-85 116 -34 323 -95 460 -137 138 -41 392 -117 565 -168 173 -51 389 -115 480
-143 91 -27 257 -77 370 -110 113 -33 324 -96 470 -140 146 -44 398 -119 560
-167 850 -252 1509 -448 1915 -570 251 -76 473 -141 648 -191 16 -5 17 11 17
243 l0 248 -188 54 c-103 29 -284 83 -402 118 -175 52 -837 248 -1095 323 -33
10 -213 63 -400 118 -187 55 -511 150 -720 212 -209 61 -452 133 -540 160 -88
26 -230 68 -315 93 -85 25 -263 78 -395 117 -132 39 -422 124 -645 190 -223
65 -457 134 -520 153 -63 20 -203 61 -310 92 -107 31 -321 94 -475 140 -154
46 -428 127 -610 181 -181 53 -357 105 -390 114 -33 10 -193 57 -355 104 -162
48 -360 107 -440 131 -150 45 -754 224 -1345 396 -187 55 -389 115 -450 134
-60 18 -180 54 -265 79 -85 24 -294 86 -465 137 -170 50 -384 113 -475 139
-91 27 -232 69 -315 93 -82 24 -283 83 -445 131 -162 48 -452 134 -645 191
-192 57 -483 143 -645 191 -162 48 -344 102 -405 119 -60 18 -198 58 -305 90
-107 31 -343 101 -525 155 -181 54 -433 128 -560 165 -225 66 -406 120 -434
130 -8 3 -12 8 -9 11 3 2 68 23 144 45 296 86 442 128 524 153 47 14 124 36
171 50 47 14 164 48 260 76 96 29 242 71 324 95 258 74 327 95 425 125 52 16
120 35 150 44 70 19 116 32 325 94 220 65 381 113 585 172 91 26 237 69 325
95 88 25 228 66 310 90 83 24 220 65 305 90 85 25 279 82 430 126 151 44 343
100 425 124 162 47 509 149 670 196 148 44 383 113 525 154 69 20 168 49 220
65 52 15 176 52 275 80 99 29 279 82 400 117 121 36 272 80 335 98 63 18 192
56 285 83 94 28 258 76 365 108 107 31 238 69 290 84 125 37 310 91 495 145
83 24 229 67 325 95 96 29 252 74 345 101 94 28 240 71 325 96 85 25 229 67
320 93 255 74 390 114 580 170 96 29 227 67 290 85 63 18 187 54 275 80 88 26
234 69 325 95 338 99 508 149 630 185 69 20 177 52 240 70 63 18 154 45 202
59 49 15 125 37 171 51 46 13 162 47 258 75 96 29 242 71 324 95 83 24 229 67
325 95 96 28 227 66 290 85 63 18 216 63 340 99 519 153 692 204 848 248 l112
33 0 287 c0 224 -3 288 -12 287 -7 0 -62 -15 -123 -34z"/>
<path d="M287 5290 c-71 -27 -129 -80 -167 -152 -31 -57 -34 -71 -35 -148 0
-66 5 -95 22 -132 30 -66 96 -133 162 -165 48 -24 68 -28 141 -28 79 0 90 3
150 36 119 65 176 170 168 308 -8 124 -72 220 -183 273 -50 23 -73 28 -135 28
-49 -1 -92 -8 -123 -20z"/>
</g>
</svg>
